<svg xmlns="http://www.w3.org/2000/svg" width="1551pt" height="788pt" viewBox="0 0 1551 788"><g fill="#fcfcfc"><path d="M0 0h991c.02 113.99-.03 227.99.02 341.98 143.89.14 287.78-.18 431.68.15 25.15 44.55 50.6 88.92 75.7 133.5 17.5 31 34.74 62.16 52.6 92.97v2.93c-44.08 71.21-83.57 145.17-127.49 216.47H255c-.01-116.66.02-233.33-.01-349.99-85-.04-169.99 0-254.99-.01zm103.01 82.01q-.03 129.99 0 259.98 39.99.045 79.98 0c.05-33.33-.03-66.65.02-99.98 25.64-.03 51.28-.04 76.92.02 2.41 33.24 1.99 66.64 2.08 99.96 26.99.03 53.98.03 80.98 0q.03-129.99 0-259.98c-26.99-.03-53.98-.02-80.96 0-.8 32.01 1.77 63.96.95 95.98-26.66.02-53.31.03-79.97 0-.06-32 .04-63.99-.02-95.98q-39.99-.045-79.98 0m341.33.1c-26.39 86.87-53.85 173.42-81.81 259.79 25.06.17 50.11.17 75.17 0 4.38-14.64 8.6-29.33 13.13-43.92 27.64.06 55.28-.08 82.92.1 3.31 14.65 7.09 29.2 10.37 43.87 28.71.08 57.43.12 86.14-.03-26.58-86.69-54.12-173.1-80.4-259.89-35.18-.02-70.35-.15-105.52.08m206.67-.09c-.03 86.65-.01 173.31 0 259.97 23.99.03 47.98.02 71.98 0-.12-50.91-.19-101.81 1.52-152.69 13.21 19.38 24.02 40.27 35.4 60.75 17.23 30.55 33.43 61.67 51.18 91.92 25.3.07 50.59.04 75.9.02.02-86.66.01-173.32 0-259.98-22.66-.03-45.32-.02-67.98-.01-.23 29.34.36 58.68-.23 88.01-.99 16.45-.68 32.93-1.08 49.4-28.26-43.88-50.76-91.12-74.72-137.4-30.65-.03-61.31-.03-91.97.01m83.44 350.53c-22.05 1.54-44.76 4.8-64.49 15.4-42.09 21.62-70.22 67.76-70.73 115 2.09 20.57 2.88 42.01 11.68 61.11 12.79 29.28 37.76 52.63 67.13 64.87 18.52 8.08 39.03 9.23 58.95 10 19.82.79 39.79-2.32 58.25-9.62 37.67-14.66 69.12-47.55 77.35-87.71 10.85-44.5 1.6-95.15-29.49-129.71-28.86-27.08-69.22-41.29-108.65-39.34m537.92.95c-15.58.77-31.31 1.52-46.48 5.45-56.06 14.98-96.57 72.76-91.75 130.59-2.15 46.31 23.41 93.05 64.89 114.37 16.12 8.26 34.21 11.39 51.91 14.25 42.38 4.19 88.16-5.6 120.29-34.94 16.25-15.01 26.3-35.31 32.6-56.23 12.32-40.61 7.96-87.68-17.22-122.62-13.34-16.91-30.63-31.02-50.5-39.52-20.12-8.35-42.02-11.84-63.74-11.35m-905.36 4.51c-.02 85.33-.02 170.65 0 255.98 26.66.03 53.32.02 79.98 0 .06-29.34-.05-58.68.03-88.02 5.21.03 10.44.1 15.67.2 16.26 29.19 31.96 58.7 48.41 87.8 28.02.07 56.04.06 84.06-.02-19.57-33.87-39-67.85-56.99-102.6 14.35-11.27 27.81-24.34 36.84-40.34 8.14-16.08 3.71-34.42 2.41-51.44-1.41-23.85-20.89-42.19-41.41-51.56-19.65-10.18-42.52-9.34-64-9.98-35-.1-70-.02-105-.02m529 1.09c-.03 84.97-.01 169.93 0 254.89 27.66.03 55.32.02 82.98 0 .07-29.43-.07-58.85.04-88.28 4.8.58 9.92.14 14.6 1.7 2.08 2.09 3.01 5 4.49 7.53 12.72 26.83 27.55 52.58 40.97 79.05 28.29-.25 56.62.82 84.88-1.01-19.65-33.78-38.23-68.15-56.97-102.43 23.72-13.09 40.71-37.87 43.75-64.86.56-14.61-3.11-29.04-7.6-42.82-7.42-16.72-22.78-28.68-39.24-35.8-16.67-7.52-35.34-7.55-53.23-8.79-38.23-.97-76.45.03-114.67.82" opacity="1.00"/><path d="M489.68 155.65c.73-2.07 1.66-4.06 2.62-6.03 8.81 30.71 16.94 61.62 25.8 92.31-17.38.14-34.76.1-52.13.03 7.69-28.83 14.48-57.92 23.71-86.31M734.45 495.52c12.27-1.26 24.64 2.43 34.77 9.26 9.47 6.08 14.35 16.71 18.1 26.9 9.57 28.13 8.75 62.24-10.3 86.35-20.96 27.5-71.08 21.53-84.57-10.41-6.53-16.54-9.13-34.59-8.21-52.32 1.82-15.27 5.89-31.1 15.84-43.2 8.65-9.84 21.47-15.32 34.37-16.58M978.97 495.23c14.34 1.84 29.34 1.8 42.71 8.1 6.71 3.42 11.33 10.75 10.93 18.33-.73 7.59-1.72 15.48-5.95 22.05-12.74 12.06-31.64 9.39-47.64 12.15-.06-20.21-.02-40.42-.05-60.63M447.04 496.02c14.98 2.56 30.87.62 45.04 6.87 9.3 4.53 11.14 15.94 11.86 25.13-.04 10.08-8.33 17.36-16.93 20.95-12.74 5-26.56 5.37-39.97 7.09-.08-20.02-.09-40.03 0-60.04M1262.43 496.49c13.76-1.72 29.14-.3 40.18 8.95 15.09 11.35 21.74 30.41 23.44 48.59 2.31 19.02-.74 38.68-9.23 55.89-4.25 8.9-12.13 15.67-20.81 20.08-21.33 9.27-49.16 6.21-64.75-12.24-7.23-9.23-9.22-21.07-11.71-32.19-4.81-24.48-2.06-52.14 13.76-72.27 7.28-8.84 17.65-15.29 29.12-16.81" opacity="1.00"/></g></svg>